<svg xmlns="http://www.w3.org/2000/svg" width="1024" height="1024" viewBox="0 0 1024 1024"><path fill="#7c3bed" d="M215.078 0h596.174c5.549 1.35 11.63 1.433 17.295 2.313 8.533 1.326 16.945 3.018 25.288 5.249a230.06 230.06 0 0 1 134.17 99.732 231.8 231.8 0 0 1 31.875 78.623c1.66 8.238 2.56 19.472 4.12 26.343v599.474c-2.87 15.879-3.08 24.765-7.49 41.236a236.16 236.16 0 0 1-93.715 132.137 217.4 217.4 0 0 1-82.899 34.833c-6 1.13-12.039 2.03-18.106 2.71-1.999.24-8.842.89-10.434 1.35H209.564c-1.59-.49-8.471-1.31-10.461-1.59a290 290 0 0 1-18.967-3.18C88.175 1000.19 15.529 919.066 2.211 826.955 1.34 820.931 1.269 814.32 0 808.43V214.194c1.95-7.181 2.641-20.04 4.326-28.507a233.3 233.3 0 0 1 33.687-82.257c35.25-53.326 93.815-93.118 157.918-100.883 5.928-.718 12.869-1.222 18.657-2.44z"/><path fill="#fefefe" d="M567.649 182.533c6.656.038 18.687 2.981 25.394 4.579a325.1 325.1 0 0 1 113.605 50.592 326.43 326.43 0 0 1 134.175 211.841 326.45 326.45 0 0 1-23.944 189.226c-5.448 12.424-13.529 29.324-21.374 40.426-9.17 7.869-17.077 1.943-25.72-3.235-3.66-2.193-7.285-4.5-10.933-6.717l-41.689-25.301c-9.417-5.71-18.841-11.412-28.276-17.092-6.716-4.439-15.513-7.738-21.299-13.379-17.134-16.706-.71-35.775 5.987-51.587 16.507-38.973 17.079-84.204.533-123.156a158.2 158.2 0 0 0-82.186-83.019c-10.234-4.461-20.213-6.711-30.646-10.349-10.608-3.818-13.803-14.558-13.125-24.794 2.361-35.621 5.506-71.143 7.82-106.766.488-7.52-.525-15.948 2.133-23.03 1.712-4.561 5.369-6.497 9.545-8.239"/><path fill="#7c3bed" d="M613.604 255.031c9.155 2.933 20.527 8.6 29.064 13.167a268.8 268.8 0 0 1 102.418 95.725 269.2 269.2 0 0 1 32.917 203.216c-1.363 5.755-8.582 33.48-12.292 35.763-12.481-6.571-25.224-14.539-37.317-21.88 24.694-59.685 23.156-126.049-7.413-183.317a208.37 208.37 0 0 0-85.204-86.497c-7.595-4.146-17.026-9.023-25.211-11.523 1.611-12.692 2.291-31.563 3.038-44.654"/><path fill="#fefefe" d="M452.745 182.609c5.393-.425 11.667 1.286 13.732 6.501 2.897 7.314 2.952 19.203 3.531 27.037l2.66 35.961c1.545 20.751 3.496 41.703 4.768 62.481 1.872 30.554-10.002 29.742-33.75 37.049a122 122 0 0 0-18.073 7.248 157.83 157.83 0 0 0-79.132 91.331 158.77 158.77 0 0 0 2.393 107.09c5.956 15.2 20.023 30.724 14.178 47.155-1.556 4.373-3.025 6.844-6.819 9.672-6.883 5.129-14.501 9.373-21.866 13.792l-38.972 23.291-32.688 19.944c-5.986 3.619-12.265 7.533-18.516 10.62-4.139 2.045-7.043 1.552-11.189.028-6.166-4.9-10.071-13.347-13.765-20.326a328.8 328.8 0 0 1-32.01-87.954 325.67 325.67 0 0 1 44.304-245.642 320.6 320.6 0 0 1 165.508-130.343c18.165-6.363 36.916-10.856 55.706-14.935"/><path fill="#7c3bed" d="M410.533 255.508c1.902 1.605 3.86 38.619 4.398 43.915-10.724 4.525-20.732 8.893-30.766 14.804-80.218 47.259-121.243 151.472-97.466 241.051 2.409 9.077 5.462 17.274 8.997 26.052-12.185 7.228-24.112 14.532-36.508 21.411-1.258-.75-1.938-2.279-2.501-3.629-4.158-9.966-6.709-21.116-9.453-31.492-14.526-54.928-9.622-106.977 10.774-159.855a262.5 262.5 0 0 1 104.355-127.987c15.542-9.686 31.502-16.877 48.17-24.27"/><path fill="#fefefe" d="M419.66 654.124c10.819-1.287 20.14 6.41 29.029 11.322 4.963 2.742 10.558 5.681 15.859 7.697a130.7 130.7 0 0 0 101.148-2.892c9.805-4.489 17.97-9.608 27.202-14.711 6.711-3.708 20.327-.359 25.912 4.884 5.098 4.786 10.534 10.179 15.716 15.289l28.992 28.523 32.838 31.813c4.967 4.763 10.225 9.29 15.014 14.224 2.027 2.087 4.459 4.526 5.509 7.277 1.311 3.432 1.411 7.987-.338 11.29-7.59 14.335-60.254 40.944-75.814 47.885-8.353 3.726-16.96 6.747-25.597 9.736a300 300 0 0 1-44.808 12.009c-90.703 16.886-182.532-6.508-255.749-62.251-19.114-14.552-.624-26.828 10.933-38.033l24.344-23.796 35.383-34.828c9.774-9.585 20.628-22.972 34.427-25.438"/><path fill="#7c3bed" d="M427.41 721.827c13.076 7.974 33.822 13.381 48.96 16.405 40.011 7.993 84.165 1.82 120.665-16.418a1110 1110 0 0 0 34.13 33.035 281 281 0 0 1-29.634 12.896c-6.492 2.533-15.295 5.135-22.024 6.909-61.152 16.123-130.569 12.239-186.018-19.878 10.864-11.152 22.763-21.078 33.921-32.949"/><path fill="#fefefe" d="M565.521 445.094c22.179-1.563 34.576 18.109 27.443 37.819-.853 2.356-5.325 8.039-7.154 9.929-20.834 21.533-41.722 42.973-62.753 64.32-7.252 7.361-11.99 12.437-23.131 12.631-12.313.356-21.165-8.827-29.46-16.482l-14.006-12.974c-5.707-4.792-11.353-10.688-16.991-15.293-13.342-10.898-17.79-28.252-4.71-41.872a26.3 26.3 0 0 1 18.472-8.175c3.332-.058 9.075.921 11.79 2.674 10.657 6.881 23.486 19.455 32.704 28.295 16.279-15.644 31.748-32.076 47.906-47.841 6.379-6.225 10.961-11.022 19.89-13.031"/></svg>
